<svg xmlns="http://www.w3.org/2000/svg" xmlns:xlink="http://www.w3.org/1999/xlink" viewBox="0 0 645.46 624.1"><defs><style>.cls-1{fill:url(#radial-gradient);}.cls-2{fill:url(#radial-gradient-2);}.cls-3{fill:url(#radial-gradient-3);}.cls-4{fill:url(#radial-gradient-4);}.cls-5{fill:url(#radial-gradient-5);}.cls-6{fill:url(#radial-gradient-6);}.cls-7{fill:url(#radial-gradient-7);}.cls-8{fill:url(#radial-gradient-8);}.cls-9{fill:url(#radial-gradient-9);}.cls-10{fill:url(#radial-gradient-10);}.cls-11{fill:url(#radial-gradient-11);}.cls-12{fill:url(#radial-gradient-12);}.cls-13{fill:url(#radial-gradient-13);}.cls-14{fill:url(#radial-gradient-14);}</style><radialGradient id="radial-gradient" cx="222.77" cy="302.46" r="349.54" gradientUnits="userSpaceOnUse"><stop offset="0" stop-color="#8ce71a"/><stop offset="0.83" stop-color="#207b6a"/></radialGradient><radialGradient id="radial-gradient-2" cx="176.8" cy="206.75" r="395.54" xlink:href="#radial-gradient"/><radialGradient id="radial-gradient-3" cx="392.7" cy="248.69" r="407.91" xlink:href="#radial-gradient"/><radialGradient id="radial-gradient-4" cx="24.57" cy="566.6" r="31.16" gradientUnits="userSpaceOnUse"><stop offset="0.26" stop-color="#8ce71a"/><stop offset="1" stop-color="#207b6a"/></radialGradient><radialGradient id="radial-gradient-5" cx="77.41" cy="577.16" r="26.12" xlink:href="#radial-gradient-4"/><radialGradient id="radial-gradient-6" cx="132.87" cy="577.05" r="27.02" xlink:href="#radial-gradient-4"/><radialGradient id="radial-gradient-7" cx="220.22" cy="566.6" r="36.07" xlink:href="#radial-gradient-4"/><radialGradient id="radial-gradient-8" cx="286.66" cy="577.05" r="27.02" xlink:href="#radial-gradient-4"/><radialGradient id="radial-gradient-9" cx="356.18" cy="576.63" r="32.33" xlink:href="#radial-gradient-4"/><radialGradient id="radial-gradient-10" cx="428.68" cy="587.09" r="33.25" xlink:href="#radial-gradient-4"/><radialGradient id="radial-gradient-11" cx="484.25" cy="576.63" r="24.08" xlink:href="#radial-gradient-4"/><radialGradient id="radial-gradient-12" cx="528.36" cy="577.05" r="27.02" xlink:href="#radial-gradient-4"/><radialGradient id="radial-gradient-13" cx="577.29" cy="577.05" r="24.31" xlink:href="#radial-gradient-4"/><radialGradient id="radial-gradient-14" cx="624.13" cy="577.05" r="24.31" xlink:href="#radial-gradient-4"/></defs><g id="Layer_2" data-name="Layer 2"><g id="Layer_1-2" data-name="Layer 1"><path class="cls-1" d="M119.38,399.86S148.8,322.59,249.85,285.1c76.07-28.23,89.33,5.86,180.27-47.7,0,0-12.34,55.59-72.38,79.66-57.64,23.11-91.65,14.68-91.65,14.68s102.19,66,197.77,2.42,89.53-191.08,89.53-191.08,86.33,249.84-148.34,333.73C236.1,537.21,119.38,399.86,119.38,399.86Z"/><path class="cls-2" d="M253.37,94.11c106.76-21.47,181,20.65,287.08,19.72-2-3.07-147.35-191.43-354.42-77-75.86,41.94-101.81,110-108,172C112.24,161.61,167.53,111.37,253.37,94.11Z"/><path class="cls-3" d="M253.37,94.11C167.53,111.37,112.24,161.61,78,208.92c-8.45,84.46,22.26,162.18,26.53,170.16,0,0,32.3-74.38,124.26-107.31,0,0-15-101.53,78.23-126.19S441.83,203.53,540.5,113.9l0-.07C434.35,114.76,360.13,72.64,253.37,94.11Z"/><path class="cls-4" d="M49,530l.11,12.23H14.74l-.1,48.82H49v12.13H0V530Zm-8.68,44H24.05l-6.8-13.59h23.1Z"/><path class="cls-5" d="M91.37,583.22l11.29,7.42-.1.11a26.84,26.84,0,0,1-23.32,13.38A26.22,26.22,0,0,1,68.69,602a27.37,27.37,0,0,1-14.38-14.38,26.61,26.61,0,0,1,0-20.91,27.31,27.31,0,0,1,14.38-14.37,26.05,26.05,0,0,1,10.55-2.15,26.88,26.88,0,0,1,23.32,13.39l.1.1-11.39,7.42-.11-.1a15.17,15.17,0,0,0-4.86-6.27,11.43,11.43,0,0,0-7.06-2.41,11.88,11.88,0,0,0-5.28,1.2,13.72,13.72,0,0,0-4.23,3.24,15.7,15.7,0,0,0-2.82,4.71,15.43,15.43,0,0,0-1,5.7,15,15,0,0,0,1,5.64,14.55,14.55,0,0,0,2.82,4.55,12.82,12.82,0,0,0,9.51,4.13,12.38,12.38,0,0,0,7.06-2.14,13.46,13.46,0,0,0,4.86-6l.11-.21Z"/><path class="cls-6" d="M132.87,550.08a26.06,26.06,0,0,1,10.56,2.14,27.37,27.37,0,0,1,14.38,14.38,26.61,26.61,0,0,1,0,20.91,27.31,27.31,0,0,1-14.38,14.37,27.12,27.12,0,0,1-21.12,0,27.34,27.34,0,0,1-14.37-14.37,26.61,26.61,0,0,1,0-20.91,27.4,27.4,0,0,1,14.37-14.38A26.13,26.13,0,0,1,132.87,550.08Zm0,41.5a10.49,10.49,0,0,0,4.87-1.15,12.94,12.94,0,0,0,4-3.18,15.87,15.87,0,0,0,2.72-4.71,16.54,16.54,0,0,0,1-5.8,15.9,15.9,0,0,0-1-5.59,14.48,14.48,0,0,0-2.72-4.6,13.74,13.74,0,0,0-4-3.09,10.62,10.62,0,0,0-4.87-1.15,10.91,10.91,0,0,0-4.91,1.15,13.43,13.43,0,0,0-4,3.09,14.3,14.3,0,0,0-2.72,4.6,15.68,15.68,0,0,0-1,5.59,16.32,16.32,0,0,0,1,5.8,15.66,15.66,0,0,0,2.72,4.71,12.67,12.67,0,0,0,4,3.18A10.78,10.78,0,0,0,132.87,591.58Z"/><path class="cls-7" d="M254.88,586.36a38.3,38.3,0,0,1-5.91,7.21,38.83,38.83,0,0,1-7.47,5.59,36.21,36.21,0,0,1-8.79,3.61A37.33,37.33,0,0,1,223,604a36.69,36.69,0,0,1-14.58-2.92,37.17,37.17,0,0,1-19.92-19.92,37.77,37.77,0,0,1,0-29.17,37.2,37.2,0,0,1,19.92-19.91A36.69,36.69,0,0,1,223,529.17a37.76,37.76,0,0,1,9.72,1.25A36.21,36.21,0,0,1,241.5,534a39.67,39.67,0,0,1,7.47,5.59,38.69,38.69,0,0,1,5.91,7.22l-12.23,7.84a23.86,23.86,0,0,0-8.05-9,20.52,20.52,0,0,0-11.61-3.4,20,20,0,0,0-8.68,1.93,23.07,23.07,0,0,0-7.1,5.23,24.74,24.74,0,0,0-4.81,7.74,26,26,0,0,0,0,18.92,24.85,24.85,0,0,0,4.81,7.74,23,23,0,0,0,7.1,5.22A20,20,0,0,0,223,591a20.59,20.59,0,0,0,11.61-3.4,23.94,23.94,0,0,0,8.05-9Z"/><path class="cls-8" d="M286.66,550.08a26.13,26.13,0,0,1,10.56,2.14,27.4,27.4,0,0,1,14.37,14.38,26.5,26.5,0,0,1,0,20.91,27.34,27.34,0,0,1-14.37,14.37,27.12,27.12,0,0,1-21.12,0,27.4,27.4,0,0,1-14.38-14.37,26.61,26.61,0,0,1,0-20.91,27.46,27.46,0,0,1,14.38-14.38A26.13,26.13,0,0,1,286.66,550.08Zm0,41.5a10.48,10.48,0,0,0,4.86-1.15,12.82,12.82,0,0,0,4-3.18,15.66,15.66,0,0,0,2.72-4.71,16.54,16.54,0,0,0,1-5.8,15.9,15.9,0,0,0-1-5.59,14.3,14.3,0,0,0-2.72-4.6,13.61,13.61,0,0,0-4-3.09,10.61,10.61,0,0,0-4.86-1.15,10.91,10.91,0,0,0-4.91,1.15,13.35,13.35,0,0,0-4,3.09,14.3,14.3,0,0,0-2.72,4.6,15.9,15.9,0,0,0-1,5.59,16.54,16.54,0,0,0,1,5.8,15.66,15.66,0,0,0,2.72,4.71,12.6,12.6,0,0,0,4,3.18A10.78,10.78,0,0,0,286.66,591.58Z"/><path class="cls-9" d="M319,550.92h13.91v52.27H319Zm56.67-.84a16.58,16.58,0,0,1,8.31,1.93,16.11,16.11,0,0,1,5.49,5.07,21.94,21.94,0,0,1,3,7.06,33.57,33.57,0,0,1,.94,7.89v31.16H379.49L379.6,572a7.86,7.86,0,0,0-.63-3.14,8.82,8.82,0,0,0-1.72-2.62,8.32,8.32,0,0,0-2.62-1.84,7.75,7.75,0,0,0-3.19-.68,7.88,7.88,0,0,0-5.85,2.46,8.09,8.09,0,0,0-2.4,5.82v31.24H349.28V572a7.86,7.86,0,0,0-.63-3.14,8.42,8.42,0,0,0-1.77-2.62,8.2,8.2,0,0,0-2.67-1.79,9,9,0,0,0-3.4-.62,7.39,7.39,0,0,1-.94-1.56c-.56-1-1.18-2.18-1.88-3.43q-1.15-2.17-2.82-5l.1-.21a15.74,15.74,0,0,1,9.93-3.53,16.16,16.16,0,0,1,9.52,2.59,17.89,17.89,0,0,1,5.64,6.43,10.24,10.24,0,0,1,.84-1.24,20.34,20.34,0,0,1,6.64-5.81A16.41,16.41,0,0,1,375.63,550.08Z"/><path class="cls-10" d="M430.3,550.08A26.87,26.87,0,0,1,441,552.22a27.53,27.53,0,0,1,8.73,5.86,27.86,27.86,0,0,1,5.85,8.62,26.13,26.13,0,0,1,2.14,10.56A27.14,27.14,0,0,1,455.55,588,27.11,27.11,0,0,1,441,602.61a26.87,26.87,0,0,1-10.67,2.15,19.81,19.81,0,0,1-12.86-4.15v-.1l5.23-9.55.1.1a14,14,0,0,0,5.75,1.26,14.52,14.52,0,0,0,5.75-1.16A14.7,14.7,0,0,0,439,588a15,15,0,0,0,4.34-10.69A14.47,14.47,0,0,0,439,566.84a15.06,15.06,0,0,0-4.76-3.16,15,15,0,0,0-11.55,0,14.78,14.78,0,0,0-7.79,7.81,14.37,14.37,0,0,0-1.15,5.7V624.1H399.67V550.92h14.11v7Q419.44,550.09,430.3,550.08Z"/><path class="cls-11" d="M505.57,553l-1.25,2.09L499,564.61l-.11-.1a15,15,0,0,0-12.54-1.1,13.84,13.84,0,0,0-4.29,2.51,15.48,15.48,0,0,0-3.19,3.81,13.57,13.57,0,0,0-1.72,4.71v28.75H462.92V550.92h14.22v6.79q5.53-7.63,16.2-7.63A26.86,26.86,0,0,1,505.47,553Z"/><path class="cls-12" d="M528.47,550.08a25.81,25.81,0,0,1,10.45,2.14A27.37,27.37,0,0,1,553.3,566.6a26.06,26.06,0,0,1,2.14,10.56,26.75,26.75,0,0,1-.63,5.85l-.1.21H528.15l-6.69-10.66h19.87a15.63,15.63,0,0,0-4.86-7.22,12.14,12.14,0,0,0-8-2.82,12.58,12.58,0,0,0-5.33,1.15,13.78,13.78,0,0,0-4.34,3.07,14,14,0,0,0-2.88,4.58,15.79,15.79,0,0,0-1,5.78,14.19,14.19,0,0,0,.94,4.95,15.19,15.19,0,0,0,2.72,4.64,15.56,15.56,0,0,0,4.28,3.49,11.36,11.36,0,0,0,5.65,1.4,16.3,16.3,0,0,0,5.17-.78,9.69,9.69,0,0,0,4.45-3.5l.1-.11.21.11,12.13,5.34-.21.21a26,26,0,0,1-9.57,8.22A26.66,26.66,0,0,1,528.47,604a27,27,0,0,1-10.61-2.09,26.68,26.68,0,0,1-8.63-5.75,27.43,27.43,0,0,1-5.8-8.57,26.85,26.85,0,0,1,0-21,27.24,27.24,0,0,1,14.43-14.38A26.47,26.47,0,0,1,528.47,550.08Z"/><path class="cls-13" d="M582.73,572.14q3.45,1.15,6.32,2.35a21.49,21.49,0,0,1,5,2.88,11.87,11.87,0,0,1,3.35,4,12.16,12.16,0,0,1,1.2,5.59v.11q0,7.95-5.28,12.44T578.55,604a34.51,34.51,0,0,1-11.71-2,40.19,40.19,0,0,1-10.77-5.85L556,596l.1-.1,7.11-11.23.1.11a21.33,21.33,0,0,0,7.11,5.07,21,21,0,0,0,8.47,1.72q6.17,0,6.17-4a3,3,0,0,0-2-2.81,35.12,35.12,0,0,0-4.7-1.78,4.48,4.48,0,0,0-1-.26,3.64,3.64,0,0,1-1-.26q-3.14-.82-6.27-1.82a21.56,21.56,0,0,1-5.65-2.71,14.3,14.3,0,0,1-4.13-4.38,13,13,0,0,1-1.62-6.84v-.2a16.21,16.21,0,0,1,1.36-6.68,15.14,15.14,0,0,1,3.87-5.21,17.62,17.62,0,0,1,6.07-3.39,24.31,24.31,0,0,1,7.83-1.2A35.7,35.7,0,0,1,588,551.6a35,35,0,0,1,9.51,4.44v.21l-6.38,11.6-.1-.1a17.46,17.46,0,0,0-6-3.82,20.24,20.24,0,0,0-7.53-1.41c-.49,0-1,0-1.67.1a5,5,0,0,0-1.73.53,4,4,0,0,0-1.3,1.1,3.08,3.08,0,0,0-.53,1.93,2.31,2.31,0,0,0,.84,1.72,9.32,9.32,0,0,0,2.14,1.47,28.11,28.11,0,0,0,2.93,1.3c1.08.42,2.14.81,3.19,1.16a2.49,2.49,0,0,1,.68.1Z"/><path class="cls-14" d="M629.56,572.14q3.45,1.15,6.33,2.35a21.49,21.49,0,0,1,5,2.88,12,12,0,0,1,3.34,4,12.16,12.16,0,0,1,1.21,5.59v.11c0,5.3-1.77,9.44-5.28,12.44s-8.46,4.49-14.8,4.49a34.59,34.59,0,0,1-11.71-2,40.13,40.13,0,0,1-10.76-5.85l-.11-.11.11-.1L610,584.68l.1.11a21.33,21.33,0,0,0,7.11,5.07,21,21,0,0,0,8.47,1.72q6.16,0,6.16-4a3,3,0,0,0-2-2.81,35.84,35.84,0,0,0-4.71-1.78,4.55,4.55,0,0,0-1-.26,3.64,3.64,0,0,1-1-.26c-2.09-.55-4.19-1.16-6.28-1.82a21.34,21.34,0,0,1-5.64-2.71,14.3,14.3,0,0,1-4.13-4.38,13,13,0,0,1-1.62-6.84v-.2a16.05,16.05,0,0,1,1.36-6.68,14.89,14.89,0,0,1,3.87-5.21,17.67,17.67,0,0,1,6.06-3.39,24.38,24.38,0,0,1,7.84-1.2,35.58,35.58,0,0,1,10.14,1.52,34.93,34.93,0,0,1,9.52,4.44v.21l-6.38,11.6-.11-.1a17.37,17.37,0,0,0-6-3.82,20.22,20.22,0,0,0-7.52-1.41c-.49,0-1.05,0-1.68.1a4.94,4.94,0,0,0-1.72.53,4,4,0,0,0-1.31,1.1,3.08,3.08,0,0,0-.52,1.93,2.31,2.31,0,0,0,.84,1.72,9.1,9.1,0,0,0,2.14,1.47,28.11,28.11,0,0,0,2.93,1.3c1.08.42,2.14.81,3.19,1.16a2.54,2.54,0,0,1,.68.1Z"/></g></g></svg>